HIERARCHY
ROOT Hips
{
	OFFSET 0.000000 100.481300 0.000000
	CHANNELS 6 Xposition Yposition Zposition Xrotation Yrotation Zrotation
	JOINT Spine
	{
		OFFSET -0.279200 12.230698 -2.892100
		CHANNELS 3 Xrotation Yrotation Zrotation
		JOINT Spine1
		{
			OFFSET -0.325700 14.269203 -3.374200
			CHANNELS 3 Xrotation Yrotation Zrotation
			JOINT Spine2
			{
				OFFSET -0.372300 16.307602 -0.352600
				CHANNELS 3 Xrotation Yrotation Zrotation
				JOINT Neck
				{
					OFFSET -0.418800 17.814194 8.416900
					CHANNELS 3 Xrotation Yrotation Zrotation
					JOINT Head
					{
						OFFSET 0.000000 7.031097 3.806800
						CHANNELS 3 Xrotation Yrotation Zrotation
						JOINT HeadTop_End
						{
							OFFSET 0.000000 24.646606 12.978600
							CHANNELS 3 Xrotation Yrotation Zrotation
							End Site
							{
								OFFSET 0.000000 27.854965 0.000000
							}
						}
					}
				}
				JOINT LeftShoulder
				{
					OFFSET 16.952999 14.495407 -7.737500
					CHANNELS 3 Xrotation Yrotation Zrotation
					JOINT LeftArm
					{
						OFFSET 9.308998 -2.777710 0.208600
						CHANNELS 3 Xrotation Yrotation Zrotation
						JOINT LeftForeArm
						{
							OFFSET 29.972298 0.000000 0.000000
							CHANNELS 3 Xrotation Yrotation Zrotation
							JOINT LeftHand
							{
								OFFSET 26.026505 0.000000 0.000000
								CHANNELS 3 Xrotation Yrotation Zrotation
								JOINT LeftHandThumb1
								{
									OFFSET 12.240501 -7.147949 9.207150
									CHANNELS 3 Xrotation Yrotation Zrotation
									JOINT LeftHandThumb2
									{
										OFFSET 4.138618 -2.389435 2.389433
										CHANNELS 3 Xrotation Yrotation Zrotation
										JOINT LeftHandThumb3
										{
											OFFSET 2.726913 -1.574387 1.574386
											CHANNELS 3 Xrotation Yrotation Zrotation
											JOINT LeftHandThumb4
											{
												OFFSET 3.941010 -2.275345 2.275342
												CHANNELS 3 Xrotation Yrotation Zrotation
												End Site
												{
													OFFSET -0.005798 5.087799 0.009903
												}
											}
										}
									}
								}
								JOINT LeftHandIndex1
								{
									OFFSET 24.424698 -1.985611 5.953459
									CHANNELS 3 Xrotation Yrotation Zrotation
									JOINT LeftHandIndex2
									{
										OFFSET 6.426697 0.000000 0.000000
										CHANNELS 3 Xrotation Yrotation Zrotation
										JOINT LeftHandIndex3
										{
											OFFSET 5.337898 0.000000 0.000000
											CHANNELS 3 Xrotation Yrotation Zrotation
											JOINT LeftHandIndex4
											{
												OFFSET 4.409401 0.000000 0.000000
												CHANNELS 3 Xrotation Yrotation Zrotation
												End Site
												{
													OFFSET 0.000000 4.409363 0.014373
												}
											}
										}
									}
								}
								JOINT LeftHandMiddle1
								{
									OFFSET 23.810104 0.000000 0.000000
									CHANNELS 3 Xrotation Yrotation Zrotation
									JOINT LeftHandMiddle2
									{
										OFFSET 7.176498 0.000000 0.000000
										CHANNELS 3 Xrotation Yrotation Zrotation
										JOINT LeftHandMiddle3
										{
											OFFSET 6.774902 0.000000 0.000000
											CHANNELS 3 Xrotation Yrotation Zrotation
											JOINT LeftHandMiddle4
											{
												OFFSET 5.403328 0.000000 0.000000
												CHANNELS 3 Xrotation Yrotation Zrotation
												End Site
												{
													OFFSET -0.027702 5.403244 0.017414
												}
											}
										}
									}
								}
								JOINT LeftHandRing1
								{
									OFFSET 22.908401 -0.839279 -6.020567
									CHANNELS 3 Xrotation Yrotation Zrotation
									JOINT LeftHandRing2
									{
										OFFSET 6.337502 0.000000 0.000000
										CHANNELS 3 Xrotation Yrotation Zrotation
										JOINT LeftHandRing3
										{
											OFFSET 5.779297 0.000000 0.000000
											CHANNELS 3 Xrotation Yrotation Zrotation
											JOINT LeftHandRing4
											{
												OFFSET 4.965698 0.000000 0.000000
												CHANNELS 3 Xrotation Yrotation Zrotation
												End Site
												{
													OFFSET 0.000000 4.965668 0.016186
												}
											}
										}
									}
								}
								JOINT LeftHandPinky1
								{
									OFFSET 20.037003 -1.530319 -10.950146
									CHANNELS 3 Xrotation Yrotation Zrotation
									JOINT LeftHandPinky2
									{
										OFFSET 5.254700 0.000000 0.000000
										CHANNELS 3 Xrotation Yrotation Zrotation
										JOINT LeftHandPinky3
										{
											OFFSET 4.810204 0.000000 0.000000
											CHANNELS 3 Xrotation Yrotation Zrotation
											JOINT LeftHandPinky4
											{
												OFFSET 3.647202 0.000000 0.000000
												CHANNELS 3 Xrotation Yrotation Zrotation
												End Site
												{
													OFFSET 0.000000 3.647186 0.011889
												}
											}
										}
									}
								}
							}
						}
					}
				}
				JOINT RightShoulder
				{
					OFFSET -15.141001 14.495407 -7.737500
					CHANNELS 3 Xrotation Yrotation Zrotation
					JOINT RightArm
					{
						OFFSET -9.308998 -2.777710 0.208500
						CHANNELS 3 Xrotation Yrotation Zrotation
						JOINT RightForeArm
						{
							OFFSET -29.972300 0.000000 0.000000
							CHANNELS 3 Xrotation Yrotation Zrotation
							JOINT RightHand
							{
								OFFSET -26.026505 0.000000 0.000000
								CHANNELS 3 Xrotation Yrotation Zrotation
								JOINT RightHandThumb1
								{
									OFFSET -12.240601 -7.148026 9.207092
									CHANNELS 3 Xrotation Yrotation Zrotation
									JOINT RightHandThumb2
									{
										OFFSET -4.138618 -2.389435 2.389433
										CHANNELS 3 Xrotation Yrotation Zrotation
										JOINT RightHandThumb3
										{
											OFFSET -2.726974 -1.574417 1.574421
											CHANNELS 3 Xrotation Yrotation Zrotation
											JOINT RightHandThumb4
											{
												OFFSET -3.941010 -2.275345 2.275343
												CHANNELS 3 Xrotation Yrotation Zrotation
												End Site
												{
													OFFSET 0.005814 5.087799 0.009927
												}
											}
										}
									}
								}
								JOINT RightHandIndex1
								{
									OFFSET -24.424698 -1.985657 5.953444
									CHANNELS 3 Xrotation Yrotation Zrotation
									JOINT RightHandIndex2
									{
										OFFSET -6.426697 0.000000 0.000000
										CHANNELS 3 Xrotation Yrotation Zrotation
										JOINT RightHandIndex3
										{
											OFFSET -5.337898 0.000000 0.000000
											CHANNELS 3 Xrotation Yrotation Zrotation
											JOINT RightHandIndex4
											{
												OFFSET -4.409401 0.000000 0.000000
												CHANNELS 3 Xrotation Yrotation Zrotation
												End Site
												{
													OFFSET 0.000000 4.409363 0.014408
												}
											}
										}
									}
								}
								JOINT RightHandMiddle1
								{
									OFFSET -23.810097 0.000000 0.000000
									CHANNELS 3 Xrotation Yrotation Zrotation
									JOINT RightHandMiddle2
									{
										OFFSET -7.176498 0.000000 0.000000
										CHANNELS 3 Xrotation Yrotation Zrotation
										JOINT RightHandMiddle3
										{
											OFFSET -6.774902 0.000000 0.000000
											CHANNELS 3 Xrotation Yrotation Zrotation
											JOINT RightHandMiddle4
											{
												OFFSET -5.403328 0.000000 0.000000
												CHANNELS 3 Xrotation Yrotation Zrotation
												End Site
												{
													OFFSET 0.027702 5.403244 0.017457
												}
											}
										}
									}
								}
								JOINT RightHandRing1
								{
									OFFSET -22.908302 -0.839325 -6.020576
									CHANNELS 3 Xrotation Yrotation Zrotation
									JOINT RightHandRing2
									{
										OFFSET -6.337502 0.000000 0.000000
										CHANNELS 3 Xrotation Yrotation Zrotation
										JOINT RightHandRing3
										{
											OFFSET -5.779297 0.000000 0.000000
											CHANNELS 3 Xrotation Yrotation Zrotation
											JOINT RightHandRing4
											{
												OFFSET -4.965698 0.000000 0.000000
												CHANNELS 3 Xrotation Yrotation Zrotation
												End Site
												{
													OFFSET 0.000000 4.965668 0.016226
												}
											}
										}
									}
								}
								JOINT RightHandPinky1
								{
									OFFSET -20.037003 -1.530334 -10.950259
									CHANNELS 3 Xrotation Yrotation Zrotation
									JOINT RightHandPinky2
									{
										OFFSET -5.254700 0.000000 0.000000
										CHANNELS 3 Xrotation Yrotation Zrotation
										JOINT RightHandPinky3
										{
											OFFSET -4.810204 0.000000 0.000000
											CHANNELS 3 Xrotation Yrotation Zrotation
											JOINT RightHandPinky4
											{
												OFFSET -3.647202 0.000000 0.000000
												CHANNELS 3 Xrotation Yrotation Zrotation
												End Site
												{
													OFFSET 0.000000 3.647186 0.011917
												}
											}
										}
									}
								}
							}
						}
					}
				}
			}
		}
	}
	JOINT LeftUpLeg
	{
		OFFSET 15.427100 -6.655098 0.678600
		CHANNELS 3 Xrotation Yrotation Zrotation
		JOINT LeftLeg
		{
			OFFSET 4.081073 -39.591068 13.024000
			CHANNELS 3 Xrotation Yrotation Zrotation
			JOINT LeftFoot
			{
				OFFSET -4.081074 -37.707932 -15.979700
				CHANNELS 3 Xrotation Yrotation Zrotation
				JOINT LeftToeBase
				{
					OFFSET 5.346399 -15.068900 20.645000
					CHANNELS 3 Xrotation Yrotation Zrotation
					JOINT LeftToe_End
					{
						OFFSET 2.754700 0.931300 11.300900
						CHANNELS 3 Xrotation Yrotation Zrotation
						End Site
						{
							OFFSET 0.000000 11.669021 0.000000
						}
					}
				}
			}
		}
	}
	JOINT RightUpLeg
	{
		OFFSET -15.569500 -6.655098 0.678600
		CHANNELS 3 Xrotation Yrotation Zrotation
		JOINT RightLeg
		{
			OFFSET -4.081825 -39.591045 13.023800
			CHANNELS 3 Xrotation Yrotation Zrotation
			JOINT RightFoot
			{
				OFFSET 4.081824 -37.707954 -15.979600
				CHANNELS 3 Xrotation Yrotation Zrotation
				JOINT RightToeBase
				{
					OFFSET -5.346400 -15.068900 20.645000
					CHANNELS 3 Xrotation Yrotation Zrotation
					JOINT RightToe_End
					{
						OFFSET -2.754700 0.931300 11.300900
						CHANNELS 3 Xrotation Yrotation Zrotation
						End Site
						{
							OFFSET 0.000000 11.669021 0.000000
						}
					}
				}
			}
		}
	}
}
MOTION
Frames: 4
Frame Time: 0.033333
1.486627 90.320366 -1.743444 -16.971929 -39.313961 -8.511011 7.992401 0.151738 -1.102775 16.413457 -0.125516 -0.745991 16.413517 -0.192923 -0.721089 0.367408 7.480961 0.837549 -6.982140 21.597273 11.882998 0.000001 0.000000 0.000001 -37.571074 -4.822525 1.545819 -41.628415 -7.015791 -61.684360 -0.000119 -64.995903 -0.000116 -119.359564 1.120058 32.550223 4.709228 9.560378 3.111988 19.473190 -1.474909 7.636921 -4.536190 -9.613101 1.492980 0.000001 0.000001 0.000000 -0.212816 3.933722 -36.747125 2.942132 5.078906 -60.144610 0.513673 2.400819 -24.150507 -0.000000 0.000002 0.000000 0.405916 5.507053 -52.453172 3.387137 5.308628 -65.057443 0.282018 1.797457 -17.832381 -0.000000 -0.000001 0.000000 -0.074382 5.736786 -61.061399 4.055025 5.569525 -72.094914 0.582671 2.548959 -25.748015 0.000000 0.000004 -0.000000 -6.565577 4.545132 -72.425236 3.299635 5.267218 -64.107814 0.175345 1.424016 -14.038877 0.000001 0.000002 -0.000001 -41.176284 -8.605651 -9.942309 -46.819690 58.242976 100.948707 0.000053 98.442970 -0.000055 -52.463100 -17.216595 -29.273115 8.377153 -4.904124 11.022004 21.620194 -18.183893 -18.379223 -0.702875 -49.821213 -32.535138 0.000000 0.000002 0.000002 -0.920020 1.683578 12.434985 0.748111 -2.533470 32.898289 0.615646 -2.316067 29.767832 -0.000000 0.000000 -0.000001 3.413063 -7.186264 51.650242 6.296809 -4.359586 110.634687 0.248728 -1.503073 18.790267 -0.000000 -0.000000 0.000000 -3.349034 -2.600425 57.010575 5.440845 -4.590903 99.698174 1.689403 -3.590706 50.382224 0.000001 -0.000000 -0.000001 -3.996434 -3.303945 64.593857 4.058851 -4.618644 82.610523 2.315545 -4.026785 59.787207 -0.000001 -0.000000 -0.000001 -19.691782 43.634151 27.886923 23.866394 -0.360599 -1.060420 1.173628 2.025244 -4.098272 -0.000032 -0.000003 -0.000002 -0.000000 0.000000 0.000000 8.090742 5.369354 -8.080216 28.380216 0.130510 1.350205 -21.559537 -18.001008 5.110529 -0.020497 0.000007 0.000001 0.000000 0.000002 0.000000 
1.487363 90.312408 -1.800253 -17.045818 -39.375487 -8.623789 8.011425 0.057615 -1.062008 16.415637 -0.151914 -0.741955 16.415678 -0.219136 -0.716603 0.373322 7.481906 0.858117 -6.964755 21.630535 11.913259 -0.000002 0.000000 0.000000 -37.579878 -4.772939 1.582749 -41.679477 -6.938441 -61.610116 -0.000042 -64.862680 -0.000045 -119.356039 1.257196 32.557097 4.709228 9.560378 3.111989 19.471493 -1.441983 7.671384 -4.528030 -9.617111 1.492500 0.000001 0.000002 -0.000000 -0.215759 3.932097 -36.780418 2.948453 5.082524 -60.216163 0.516663 2.407461 -24.221388 0.000001 -0.000001 0.000000 0.412559 5.516681 -52.537579 3.387531 5.308806 -65.061705 0.282152 1.797861 -17.836677 0.000000 0.000001 0.000000 -0.071872 5.741079 -61.101848 4.054681 5.569406 -72.091281 0.582504 2.548636 -25.744448 -0.000000 -0.000000 -0.000000 -6.557134 4.558626 -72.476940 3.295918 5.265410 -64.067352 0.174370 1.420130 -13.999708 -0.000000 0.000002 -0.000002 -41.161660 -8.672149 -9.921101 -47.390684 58.263733 101.499432 0.000785 98.174530 -0.000812 -52.467693 -17.182012 -29.204724 8.390528 -4.924705 11.023805 21.659541 -18.122348 -18.399073 -0.690973 -49.819868 -32.522386 -0.000002 0.000000 -0.000001 -0.920589 1.672593 12.467185 0.751244 -2.538305 32.969156 0.618511 -2.321080 29.838849 -0.000000 0.000000 0.000001 3.418373 -7.186597 51.735333 6.297120 -4.359448 110.638888 0.248822 -1.503392 18.794560 -0.000000 -0.000001 0.000000 -3.348977 -2.605994 57.050641 5.440580 -4.590950 99.694554 1.689190 -3.590508 50.378683 0.000000 -0.000000 0.000001 -4.002150 -3.308789 64.646429 4.055679 -4.618239 82.571127 2.312770 -4.025191 59.747811 -0.000000 -0.000000 0.000003 -19.831295 43.657965 28.115765 23.840608 -0.473651 -1.181564 1.258888 1.942682 -4.006313 -0.000030 0.000009 0.000006 0.000000 -0.000000 0.000000 7.841813 5.435316 -8.028512 28.645894 0.094966 1.367037 -21.100247 -17.989904 5.262981 0.462458 -0.000005 -0.000002 0.000000 0.000000 -0.000000 
1.481031 90.115746 -1.994497 -17.072930 -39.328291 -8.628139 8.363876 0.130142 -0.970348 16.443204 -0.129248 -0.735699 16.443295 -0.197215 -0.710440 0.351557 7.480149 0.861627 -7.120831 21.711312 11.835847 -0.000000 0.000000 0.000001 -37.577187 -4.717244 1.418737 -42.252206 -7.222800 -61.706675 -0.000085 -64.360873 -0.000073 -119.319976 1.460402 32.359821 4.709228 9.560379 3.111988 19.415817 -1.512953 7.745570 -4.497317 -9.574005 1.469968 -0.000002 -0.000001 -0.000001 -0.221946 3.925312 -36.801787 2.950179 5.083488 -60.235459 0.517426 2.409187 -24.240232 0.000001 0.000001 -0.000002 0.418828 5.526035 -52.622632 3.389965 5.309924 -65.087919 0.282962 1.800414 -17.862791 -0.000002 -0.000004 -0.000002 -0.082629 5.738583 -61.149413 4.060265 5.571197 -72.148866 0.585021 2.553845 -25.800906 0.000001 0.000004 0.000001 -6.552687 4.573138 -72.539744 3.298550 5.266691 -64.096257 0.175106 1.423066 -14.029244 -0.000000 0.000001 -0.000000 -41.148089 -8.684696 -9.892892 -47.631776 58.293561 101.327550 -0.000369 98.087459 0.000371 -52.500929 -17.076118 -29.335324 8.478438 -5.060041 11.036075 21.702322 -18.037116 -18.411420 -0.660404 -49.816436 -32.489724 -0.000002 -0.000000 0.000001 -0.918952 1.656739 12.486585 0.752063 -2.539563 32.987642 0.619291 -2.322398 29.857684 0.000001 0.000000 -0.000000 3.424165 -7.187292 51.821062 6.299122 -4.358714 110.665115 0.249516 -1.505419 18.820754 -0.000000 -0.000000 0.000000 -3.335493 -2.621173 57.096860 5.445112 -4.590172 99.751088 1.692734 -3.593448 50.435333 -0.000000 -0.000000 0.000000 -4.003362 -3.317403 64.709923 4.058080 -4.618552 82.600913 2.314854 -4.026383 59.777522 0.000000 -0.000000 0.000002 -20.882649 43.434573 28.634376 24.814040 -0.440758 -1.269967 1.055125 1.529797 -2.349287 1.155623 0.005328 -0.833672 0.000000 -0.000000 -0.000000 7.235376 5.672540 -7.917880 29.581758 -0.146754 1.350597 -20.807010 -18.099918 5.517529 0.926672 -0.000019 -0.000001 -0.000000 0.000003 -0.000000 
1.834421 89.461945 -2.475882 -17.071276 -39.039213 -8.635726 9.106391 0.234232 -0.745530 16.520257 -0.092465 -0.720340 16.520358 -0.161588 -0.694935 0.307194 7.476579 0.836307 -7.404185 21.740204 11.685026 0.000000 0.000001 0.000001 -37.540916 -4.868337 1.264725 -43.960907 -7.934243 -62.373520 0.000035 -62.785380 0.000039 -118.999148 1.626816 31.718948 4.709228 9.560371 3.111990 19.349832 -1.577775 7.824402 -4.462524 -9.525263 1.444743 -0.000000 0.000001 -0.000002 -0.219860 3.927404 -36.791586 2.948018 5.082257 -60.210925 0.516429 2.406936 -24.216021 -0.000001 -0.000002 0.000000 0.426315 5.534045 -52.665369 3.393933 5.311760 -65.130792 0.284322 1.804591 -17.905568 0.000002 0.000004 -0.000002 -0.118463 5.719226 -61.153634 4.071065 5.574648 -72.260027 0.589870 2.563817 -25.909373 0.000001 0.000000 -0.000001 -6.585933 4.565816 -72.555460 3.304941 5.269775 -64.165659 0.176730 1.429545 -14.094601 0.000000 0.000001 -0.000004 -41.126037 -8.678055 -9.842344 -47.185764 57.902942 99.762809 -0.000064 97.990368 0.000064 -52.696146 -16.990396 -29.107824 8.575705 -5.209691 11.050109 21.762480 -17.935638 -18.437274 -0.628230 -49.812802 -32.455307 -0.000001 0.000002 0.000001 -0.919244 1.662182 12.476981 0.750982 -2.537908 32.963391 0.618295 -2.320698 29.833440 0.000000 0.000000 -0.000000 3.422783 -7.184279 51.864167 6.302372 -4.357491 110.708016 0.250643 -1.508714 18.863575 0.000000 0.000000 0.000000 -3.300217 -2.644466 57.098660 5.453778 -4.588693 99.859469 1.699577 -3.599040 50.544237 0.000000 0.000001 0.000002 -3.969543 -3.335482 64.723685 4.063295 -4.619242 82.665807 2.319484 -4.029071 59.843290 0.000000 0.000001 0.000000 -23.549215 42.652189 30.008132 27.236180 -0.759583 -1.543408 1.402070 1.795332 -0.395498 1.572107 0.021332 -1.665013 -0.000000 -0.000000 0.000000 5.916950 6.054472 -7.795854 31.609374 -0.589158 1.354446 -20.859917 -18.259189 5.962742 0.949328 -0.000060 0.010689 -0.000000 -0.000000 -0.000000 
